<?xml version="1.0" standalone="no"?>
<!DOCTYPE svg PUBLIC "-//W3C//DTD SVG 20010904//EN"
 "http://www.w3.org/TR/2001/REC-SVG-20010904/DTD/svg10.dtd">
<svg version="1.0" xmlns="http://www.w3.org/2000/svg"
 width="1024.000000pt" height="1024.000000pt" viewBox="0 0 1024.000000 1024.000000"
 preserveAspectRatio="xMidYMid meet">
<metadata>
Created by potrace 1.14, written by Peter Selinger 2001-2017
</metadata>
<g transform="translate(0.000000,1024.000000) scale(0.100000,-0.100000)"
fill="#000000" stroke="none">
<path d="M2320 9898 c0 -20 1 -21 20 -3 11 10 20 20 20 22 0 1 -9 3 -20 3 -14
0 -20 -7 -20 -22z"/>
<path d="M2080 9738 c0 -20 1 -21 20 -3 11 10 20 20 20 22 0 1 -9 3 -20 3 -14
0 -20 -7 -20 -22z"/>
<path d="M1760 9498 c0 -20 1 -21 20 -3 11 10 20 20 20 22 0 1 -9 3 -20 3 -14
0 -20 -7 -20 -22z"/>
<path d="M5115 8570 c-347 -26 -648 -87 -962 -195 -153 -52 -457 -182 -533
-227 -19 -11 -64 -36 -100 -56 -85 -45 -321 -206 -418 -285 -88 -71 -271 -250
-325 -318 -108 -136 -103 -259 20 -504 90 -178 218 -419 343 -642 l74 -133
694 0 693 0 -6 23 c-4 12 -31 65 -61 117 -71 126 -139 274 -153 332 -64 270
131 534 419 568 55 7 663 10 1705 8 l1620 -3 3 -772 c1 -425 6 -773 10 -773 7
0 56 51 172 179 14 16 64 70 111 122 161 175 209 233 229 276 20 42 20 63 23
826 l2 782 -1177 3 c-648 1 -1178 6 -1178 10 0 4 75 45 168 90 l167 82 255 0
c217 0 252 2 240 14 -22 20 -228 126 -364 186 -249 110 -527 194 -806 244
-238 43 -631 64 -865 46z"/>
<path d="M6878 7018 c-60 -69 -149 -175 -175 -208 -6 -8 -80 -98 -165 -199
-84 -102 -198 -239 -253 -306 -122 -149 -340 -411 -498 -599 -65 -78 -144
-172 -175 -210 -31 -38 -82 -99 -112 -135 -114 -138 -137 -167 -148 -188 -11
-19 -5 -33 39 -110 28 -48 60 -104 71 -123 11 -19 56 -99 100 -177 l80 -142
48 52 c26 29 60 68 76 87 26 31 380 431 460 520 17 19 125 141 239 270 114
129 240 271 280 315 39 44 104 117 143 163 39 45 90 103 114 129 102 111 144
158 303 338 93 105 192 215 221 245 28 30 74 80 100 111 27 31 84 94 127 141
42 47 77 88 77 92 0 3 -200 6 -444 6 l-444 0 -64 -72z"/>
<path d="M7910 6928 c-32 -40 -149 -177 -160 -188 -3 -3 -78 -86 -165 -185
-88 -99 -203 -227 -255 -285 -53 -58 -111 -123 -130 -144 -34 -39 -123 -137
-186 -206 -18 -19 -119 -134 -226 -256 -179 -204 -404 -460 -743 -844 -76 -85
-201 -228 -278 -318 -77 -89 -141 -161 -142 -160 -2 2 -25 46 -53 98 -27 52
-69 131 -94 175 -82 147 -244 448 -318 590 -40 77 -76 145 -80 150 -4 6 -30
53 -57 105 -46 86 -142 265 -220 410 -26 49 -94 171 -98 178 -3 4 -1388 2
-1392 -2 -6 -6 24 -64 124 -236 49 -85 116 -202 148 -260 32 -58 73 -130 90
-160 18 -30 44 -75 57 -100 14 -25 70 -124 125 -220 55 -96 166 -290 245 -430
80 -140 183 -320 228 -400 46 -80 104 -183 130 -230 26 -47 87 -157 137 -245
49 -88 102 -189 118 -225 l30 -65 5 -899 5 -899 25 -18 c71 -52 728 -75 1035
-36 151 19 197 30 215 52 8 10 11 236 11 837 0 453 3 853 8 890 15 116 52 181
360 628 74 107 162 231 195 275 74 96 89 117 143 192 23 32 86 115 140 184 54
70 112 144 128 165 17 21 82 104 145 183 63 79 126 158 140 175 31 39 429 517
542 651 47 55 92 106 101 114 15 12 17 59 17 507 0 272 -4 494 -8 494 -5 0
-24 -19 -42 -42z"/>
<path d="M2151 6646 c-113 -257 -209 -561 -260 -823 -68 -343 -89 -758 -56
-1082 16 -155 16 -159 47 -326 74 -414 289 -916 556 -1300 61 -87 180 -244
198 -260 47 -42 124 -138 118 -148 -4 -7 -4 -9 1 -5 11 11 36 -12 28 -25 -3
-5 -2 -7 4 -4 13 8 86 -67 76 -78 -5 -4 -2 -5 4 -1 8 4 35 -15 70 -50 118
-115 358 -292 568 -419 193 -116 581 -295 665 -307 l25 -3 3 731 c3 796 3 798
-54 940 -27 69 -80 161 -279 484 -394 641 -533 872 -1350 2240 -135 227 -296
492 -310 513 -11 16 -18 6 -54 -77z"/>
<path d="M8650 6013 c-216 -255 -253 -293 -269 -280 -14 11 -14 10 -2 -6 13
-16 10 -22 -21 -55 -20 -20 -42 -46 -51 -57 -9 -11 -49 -60 -89 -110 -152
-186 -317 -394 -398 -500 -104 -137 -538 -713 -645 -855 -43 -58 -110 -147
-149 -198 -163 -215 -299 -413 -341 -497 -83 -167 -79 -128 -82 -860 -3 -646
0 -765 19 -765 29 0 317 134 464 216 103 57 307 187 377 241 136 104 268 216
342 290 19 19 39 32 45 28 5 -3 8 0 5 7 -3 7 21 39 54 71 78 74 227 254 317
380 339 476 543 985 619 1552 55 404 40 798 -46 1185 -38 174 -69 290 -78 290
-3 0 -36 -34 -71 -77z"/>
<path d="M4805 1143 c-87 -2 -162 -7 -165 -12 -7 -10 -371 -30 -429 -24 -27 3
-46 1 -50 -6 -5 -7 -54 -14 -124 -18 -64 -3 -117 -10 -117 -15 0 -4 -18 -8
-40 -8 -22 0 -40 -4 -40 -10 0 -5 -25 -10 -56 -10 -36 0 -61 -5 -70 -15 -9 -8
-20 -15 -25 -15 -5 0 -9 7 -9 15 0 8 -9 15 -20 15 -17 0 -20 -7 -20 -40 0 -31
-4 -40 -17 -40 -13 0 -9 -8 16 -34 30 -31 38 -34 114 -40 45 -4 84 -11 85 -16
2 -6 20 -10 41 -10 20 0 41 -4 46 -9 6 -5 33 -11 60 -14 28 -2 111 -11 185
-20 363 -44 1059 -73 1465 -61 154 4 323 8 375 9 155 2 385 17 390 26 3 4 94
11 203 15 108 4 197 10 197 14 0 5 36 11 80 15 44 4 80 11 80 16 0 5 18 9 40
9 22 0 40 5 40 10 0 6 8 10 18 10 9 0 23 9 30 20 9 16 23 20 62 20 43 0 50 3
50 20 0 17 -7 20 -40 20 -39 0 -40 1 -40 34 l0 34 -80 7 c-44 4 -80 11 -80 16
0 5 -36 9 -80 9 -44 0 -80 4 -80 8 0 5 -53 12 -117 15 -64 4 -119 10 -122 15
-3 5 -111 12 -240 15 -148 4 -237 11 -241 18 -7 11 -953 20 -1275 12z"/>
</g>
</svg>
